<svg width="33" height="33" viewBox="0 0 33 33" fill="none" xmlns="http://www.w3.org/2000/svg">
<path d="M12.375 12.375H14.4375V24.75H12.375V12.375ZM18.5625 12.375H20.625V24.75H18.5625V12.375Z" fill="white"/>
<path d="M4.125 6.1875V8.25H6.1875V28.875C6.1875 29.422 6.4048 29.9466 6.79159 30.3334C7.17839 30.7202 7.70299 30.9375 8.25 30.9375H24.75C25.297 30.9375 25.8216 30.7202 26.2084 30.3334C26.5952 29.9466 26.8125 29.422 26.8125 28.875V8.25H28.875V6.1875H4.125ZM8.25 28.875V8.25H24.75V28.875H8.25ZM12.375 2.0625H20.625V4.125H12.375V2.0625Z" fill="white"/>
</svg>
