<svg width="47" height="47" viewBox="0 0 47 47" fill="none" xmlns="http://www.w3.org/2000/svg">
<path d="M11.75 9.72021V6.85419C11.75 6.07511 12.0595 5.32795 12.6104 4.77706C13.1613 4.22617 13.9084 3.91669 14.6875 3.91669H40.1458C40.9249 3.91669 41.6721 4.22617 42.223 4.77706C42.7738 5.32795 43.0833 6.07511 43.0833 6.85419V32.3125C43.0833 33.0916 42.7738 33.8388 42.223 34.3896C41.6721 34.9405 40.9249 35.25 40.1458 35.25H37.225" stroke="white" stroke-width="2.75"/>
<path d="M34.2721 9.79169H6.85547C5.23313 9.79169 3.91797 11.1069 3.91797 12.7292V40.1459C3.91797 41.7682 5.23313 43.0834 6.85547 43.0834H34.2721C35.8945 43.0834 37.2096 41.7682 37.2096 40.1459V12.7292C37.2096 11.1069 35.8945 9.79169 34.2721 9.79169Z" stroke="white" stroke-width="2.75" stroke-linejoin="round"/>
<path d="M18.058 22.6285L23.2398 17.2333C24.6606 15.8126 26.9969 15.8429 28.4568 17.3038C29.9167 18.7638 29.9481 21.1001 28.5273 22.5208L26.6571 24.5017M13.1877 28.1481C12.6883 28.6475 11.6553 29.6462 11.6553 29.6462C10.2335 31.067 10.1944 33.6001 11.6553 35.061C13.1142 36.52 15.4505 36.5523 16.8723 35.1305L21.9287 30.5402" stroke="white" stroke-width="2.75" stroke-linecap="round" stroke-linejoin="round"/>
<path d="M18.2771 27.7379C17.6267 27.0916 17.2332 26.2311 17.1697 25.3164C17.1322 24.8033 17.2055 24.2881 17.3846 23.8057C17.5636 23.3234 17.8443 22.8852 18.2076 22.5209M21.8589 25.3223C23.3189 26.7822 23.3502 29.1185 21.9294 30.5402" stroke="white" stroke-width="2.75" stroke-linecap="round" stroke-linejoin="round"/>
</svg>
