<svg width="29" height="29" viewBox="0 0 29 29" fill="none" xmlns="http://www.w3.org/2000/svg">
<path fill-rule="evenodd" clip-rule="evenodd" d="M14.5 26.875C21.3344 26.875 26.875 21.3344 26.875 14.5C26.875 7.66556 21.3344 2.125 14.5 2.125C7.66556 2.125 2.125 7.66556 2.125 14.5C2.125 21.3344 7.66556 26.875 14.5 26.875ZM14.5 28.25C22.0941 28.25 28.25 22.0941 28.25 14.5C28.25 6.90588 22.0941 0.75 14.5 0.75C6.90588 0.75 0.75 6.90588 0.75 14.5C0.75 22.0941 6.90588 28.25 14.5 28.25Z" fill="white"/>
<path d="M6.25 22.4955C6.25 21.7853 6.78075 21.1851 7.4875 21.1067C12.7916 20.5196 16.2325 20.5725 21.5249 21.1198C21.7892 21.1475 22.0396 21.2516 22.2457 21.4194C22.4518 21.5872 22.6046 21.8113 22.6854 22.0645C22.7661 22.3176 22.7715 22.5889 22.7007 22.845C22.6298 23.1011 22.486 23.3311 22.2866 23.5068C16.0407 28.9511 12.4712 28.8762 6.69 23.5123C6.40813 23.251 6.25 22.8791 6.25 22.4955Z" fill="white"/>
<path fill-rule="evenodd" clip-rule="evenodd" d="M21.4541 21.8035C16.2036 21.2604 12.8122 21.2095 7.56244 21.7904C7.38963 21.8106 7.23032 21.8937 7.11502 22.024C6.99971 22.1543 6.9365 22.3225 6.9375 22.4965C6.9375 22.6931 7.01932 22.8794 7.1575 23.0087C10.023 25.6666 12.1941 26.8676 14.3164 26.8752C16.4463 26.8827 18.7343 25.6913 21.8349 22.9894C21.9334 22.9018 22.0044 22.7874 22.0391 22.6601C22.0738 22.5329 22.0708 22.3983 22.0304 22.2728C21.9901 22.1473 21.9141 22.0361 21.8118 21.9529C21.7095 21.8697 21.5852 21.8174 21.4541 21.8035ZM7.41188 20.4237C12.7716 19.8304 16.2628 19.884 21.5964 20.4361C21.994 20.4776 22.3708 20.6341 22.6808 20.8865C22.9908 21.1388 23.2205 21.4761 23.3417 21.857C23.463 22.2379 23.4706 22.6459 23.3635 23.0311C23.2565 23.4162 23.0394 23.7618 22.739 24.0255C19.5937 26.7672 16.9743 28.2605 14.3123 28.2502C11.6428 28.2406 9.13888 26.7219 6.22319 24.0166C6.01443 23.8221 5.84802 23.5867 5.73434 23.325C5.62066 23.0634 5.56216 22.7811 5.5625 22.4958C5.5615 21.9832 5.74964 21.4883 6.09089 21.1058C6.43214 20.7233 6.9025 20.4809 7.41188 20.4237Z" fill="white"/>
<path d="M20 11.75C20 13.2087 19.4205 14.6076 18.3891 15.6391C17.3576 16.6705 15.9587 17.25 14.5 17.25C13.0413 17.25 11.6424 16.6705 10.6109 15.6391C9.57946 14.6076 9 13.2087 9 11.75C9 10.2913 9.57946 8.89236 10.6109 7.86091C11.6424 6.82946 13.0413 6.25 14.5 6.25C15.9587 6.25 17.3576 6.82946 18.3891 7.86091C19.4205 8.89236 20 10.2913 20 11.75Z" fill="white"/>
<path fill-rule="evenodd" clip-rule="evenodd" d="M14.5 15.875C15.594 15.875 16.6432 15.4404 17.4168 14.6668C18.1904 13.8932 18.625 12.844 18.625 11.75C18.625 10.656 18.1904 9.60677 17.4168 8.83318C16.6432 8.0596 15.594 7.625 14.5 7.625C13.406 7.625 12.3568 8.0596 11.5832 8.83318C10.8096 9.60677 10.375 10.656 10.375 11.75C10.375 12.844 10.8096 13.8932 11.5832 14.6668C12.3568 15.4404 13.406 15.875 14.5 15.875ZM14.5 17.25C15.9587 17.25 17.3576 16.6705 18.3891 15.6391C19.4205 14.6076 20 13.2087 20 11.75C20 10.2913 19.4205 8.89236 18.3891 7.86091C17.3576 6.82946 15.9587 6.25 14.5 6.25C13.0413 6.25 11.6424 6.82946 10.6109 7.86091C9.57946 8.89236 9 10.2913 9 11.75C9 13.2087 9.57946 14.6076 10.6109 15.6391C11.6424 16.6705 13.0413 17.25 14.5 17.25Z" fill="white"/>
</svg>
