<svg width="33" height="33" viewBox="0 0 33 33" fill="none" xmlns="http://www.w3.org/2000/svg">
<path fill-rule="evenodd" clip-rule="evenodd" d="M16.5 28.875C23.3344 28.875 28.875 23.3344 28.875 16.5C28.875 9.66556 23.3344 4.125 16.5 4.125C9.66556 4.125 4.125 9.66556 4.125 16.5C4.125 23.3344 9.66556 28.875 16.5 28.875ZM16.5 30.25C24.0941 30.25 30.25 24.0941 30.25 16.5C30.25 8.90588 24.0941 2.75 16.5 2.75C8.90588 2.75 2.75 8.90588 2.75 16.5C2.75 24.0941 8.90588 30.25 16.5 30.25Z" fill="#111111"/>
<path d="M8.25 24.4955C8.25 23.7853 8.78075 23.1851 9.4875 23.1067C14.7916 22.5196 18.2325 22.5725 23.5249 23.1198C23.7892 23.1475 24.0396 23.2516 24.2457 23.4194C24.4518 23.5872 24.6046 23.8113 24.6854 24.0645C24.7661 24.3176 24.7715 24.5889 24.7007 24.845C24.6298 25.1011 24.486 25.3311 24.2866 25.5068C18.0407 30.9511 14.4712 30.8762 8.69 25.5123C8.40813 25.251 8.25 24.8791 8.25 24.4955Z" fill="#111111"/>
<path fill-rule="evenodd" clip-rule="evenodd" d="M23.4541 23.8035C18.2036 23.2604 14.8122 23.2095 9.56244 23.7904C9.38963 23.8106 9.23032 23.8937 9.11502 24.024C8.99971 24.1543 8.9365 24.3225 8.9375 24.4965C8.9375 24.6931 9.01932 24.8794 9.1575 25.0087C12.023 27.6666 14.1941 28.8676 16.3164 28.8752C18.4463 28.8827 20.7343 27.6913 23.8349 24.9894C23.9334 24.9018 24.0044 24.7874 24.0391 24.6601C24.0738 24.5329 24.0708 24.3983 24.0304 24.2728C23.9901 24.1473 23.9141 24.0361 23.8118 23.9529C23.7095 23.8697 23.5852 23.8174 23.4541 23.8035ZM9.41188 22.4237C14.7716 21.8304 18.2628 21.884 23.5964 22.4361C23.994 22.4776 24.3708 22.6341 24.6808 22.8865C24.9908 23.1388 25.2205 23.4761 25.3417 23.857C25.463 24.2379 25.4706 24.6459 25.3635 25.0311C25.2565 25.4162 25.0394 25.7618 24.739 26.0255C21.5937 28.7672 18.9743 30.2605 16.3123 30.2502C13.6428 30.2406 11.1389 28.7219 8.22319 26.0166C8.01443 25.8221 7.84802 25.5867 7.73434 25.325C7.62066 25.0634 7.56216 24.7811 7.5625 24.4958C7.5615 23.9832 7.74964 23.4883 8.09089 23.1058C8.43214 22.7233 8.9025 22.4809 9.41188 22.4237Z" fill="#111111"/>
<path d="M22 13.75C22 15.2087 21.4205 16.6076 20.3891 17.6391C19.3576 18.6705 17.9587 19.25 16.5 19.25C15.0413 19.25 13.6424 18.6705 12.6109 17.6391C11.5795 16.6076 11 15.2087 11 13.75C11 12.2913 11.5795 10.8924 12.6109 9.86091C13.6424 8.82946 15.0413 8.25 16.5 8.25C17.9587 8.25 19.3576 8.82946 20.3891 9.86091C21.4205 10.8924 22 12.2913 22 13.75Z" fill="#111111"/>
<path fill-rule="evenodd" clip-rule="evenodd" d="M16.5 17.875C17.594 17.875 18.6432 17.4404 19.4168 16.6668C20.1904 15.8932 20.625 14.844 20.625 13.75C20.625 12.656 20.1904 11.6068 19.4168 10.8332C18.6432 10.0596 17.594 9.625 16.5 9.625C15.406 9.625 14.3568 10.0596 13.5832 10.8332C12.8096 11.6068 12.375 12.656 12.375 13.75C12.375 14.844 12.8096 15.8932 13.5832 16.6668C14.3568 17.4404 15.406 17.875 16.5 17.875ZM16.5 19.25C17.9587 19.25 19.3576 18.6705 20.3891 17.6391C21.4205 16.6076 22 15.2087 22 13.75C22 12.2913 21.4205 10.8924 20.3891 9.86091C19.3576 8.82946 17.9587 8.25 16.5 8.25C15.0413 8.25 13.6424 8.82946 12.6109 9.86091C11.5795 10.8924 11 12.2913 11 13.75C11 15.2087 11.5795 16.6076 12.6109 17.6391C13.6424 18.6705 15.0413 19.25 16.5 19.25Z" fill="#111111"/>
</svg>
