<svg width="180" height="180" viewBox="0 0 180 180" fill="none" xmlns="http://www.w3.org/2000/svg">
<rect width="180" height="180" rx="90" fill="white"/>
<path d="M59.7601 56.88H105.12C113.073 56.88 119.52 63.3271 119.52 71.28V105.12C119.52 113.073 113.073 119.52 105.12 119.52H59.7601V56.88Z" fill="#0F022C"/>
<path fill-rule="evenodd" clip-rule="evenodd" d="M69.1201 35.2798H37.4401V38.16H37.44V139.68H37.4402V141.12H69.1201V130.32H48.24V46.0798H69.1201V35.2798ZM80.6401 46.0798H130.32V82.7998H79.2001V92.8798H130.32V130.32H80.6401V141.12H128.88C132.229 141.12 135.222 139.595 137.203 137.202C139.596 135.221 141.12 132.229 141.12 128.88V92.8798H141.12V82.7998H141.12V48.96C141.12 47.9626 140.985 46.9968 140.732 46.0798H141.12C141.12 40.1152 136.285 35.2798 130.32 35.2798H80.6401V46.0798Z" fill="url(#paint0_linear_1_145)"/>
<defs>
<linearGradient id="paint0_linear_1_145" x1="37.44" y1="35.2798" x2="141.12" y2="141.12" gradientUnits="userSpaceOnUse">
<stop stop-color="#7F82DC"/>
<stop offset="1" stop-color="#38138D"/>
</linearGradient>
</defs>
</svg>
