<svg width="96" height="96" viewBox="0 0 96 96" fill="none" xmlns="http://www.w3.org/2000/svg">
<rect width="96" height="96" rx="48" fill="white"/>
<path d="M31.8721 30.336H56.0641C60.3056 30.336 63.7441 33.7745 63.7441 38.016V56.064C63.7441 60.3055 60.3056 63.744 56.0641 63.744H31.8721V30.336Z" fill="#0F022C"/>
<path fill-rule="evenodd" clip-rule="evenodd" d="M36.8641 18.8159H19.968V20.352H19.968V74.496H19.9681V75.2639H36.8641V69.5039H25.728V24.5759H36.8641V18.8159ZM43.0081 24.5759H69.5039V44.1599H42.2401V49.5359H69.5039V69.5039H43.0081V75.2639H68.7361C70.5223 75.2639 72.1187 74.4508 73.1752 73.1746C74.4511 72.1181 75.2639 70.522 75.2639 68.736V49.5359H75.2641V44.1599H75.2639V26.112C75.2639 25.58 75.1918 25.0649 75.0568 24.5759H75.264C75.264 21.3948 72.6852 18.8159 69.504 18.8159H43.0081V24.5759Z" fill="url(#paint0_linear_1_132)"/>
<defs>
<linearGradient id="paint0_linear_1_132" x1="19.968" y1="18.8159" x2="75.264" y2="75.2639" gradientUnits="userSpaceOnUse">
<stop stop-color="#7F82DC"/>
<stop offset="1" stop-color="#38138D"/>
</linearGradient>
</defs>
</svg>
