<svg width="33" height="33" viewBox="0 0 33 33" fill="none" xmlns="http://www.w3.org/2000/svg">
<path d="M6.4698 0.0078125C2.91514 0.0078125 0.00585938 2.91703 0.00585938 6.47175V26.5305C0.00585938 30.0852 2.91507 32.9934 6.4698 32.9934H26.5286C30.0832 32.9934 32.9914 30.0852 32.9914 26.5305V6.47175C32.9914 2.91709 30.0832 0.0078125 26.5286 0.0078125H6.4698ZM8.09558 5.4511C9.79996 5.4511 10.8498 6.56999 10.8822 8.04077C10.8822 9.47908 9.7999 10.6294 8.06261 10.6294H8.03063C6.35869 10.6294 5.27804 9.47914 5.27804 8.04077C5.27804 6.57003 6.39139 5.4511 8.09554 5.4511H8.09558ZM22.7832 12.3253C26.0611 12.3253 28.5183 14.4678 28.5183 19.0717V27.6665H23.5368V19.648C23.5368 17.633 22.8159 16.2583 21.0131 16.2583C19.6369 16.2583 18.8166 17.1848 18.4564 18.0799C18.3249 18.4002 18.2925 18.8474 18.2925 19.2954V27.6665H13.3111C13.3111 27.6665 13.3764 14.0833 13.3111 12.6768H18.2935V14.7995C18.9555 13.7782 20.1396 12.3253 22.7832 12.3253V12.3253ZM5.57187 12.6779H10.5533V27.6666H5.57187V12.6779Z" fill="#1E2445"/>
</svg>
