<svg width="37" height="36" viewBox="0 0 37 36" fill="none" xmlns="http://www.w3.org/2000/svg">
<path d="M31.8 3H6.2C5.35131 3 4.53737 3.34768 3.93726 3.96655C3.33714 4.58542 3 5.42479 3 6.3V26.1C3 26.9752 3.33714 27.8146 3.93726 28.4335C4.53737 29.0523 5.35131 29.4 6.2 29.4H15.8V32.7H11V36H27V32.7H22.2V29.4H31.8C32.6487 29.4 33.4626 29.0523 34.0627 28.4335C34.6629 27.8146 35 26.9752 35 26.1V6.3C35 5.42479 34.6629 4.58542 34.0627 3.96655C33.4626 3.34768 32.6487 3 31.8 3ZM31.8 26.1H6.2V6.3H31.8V26.1Z" fill="#F7FAFC"/>
</svg>
