<?xml version="1.0" encoding="utf-8"?>
<!-- Generator: Adobe Illustrator 19.0.0, SVG Export Plug-In . SVG Version: 6.00 Build 0)  -->
<svg version="1.1" id="layer" xmlns="http://www.w3.org/2000/svg" xmlns:xlink="http://www.w3.org/1999/xlink" x="0px" y="0px"
	 viewBox="-153 -46 652 652" style="enable-background:new -153 -46 652 652;" xml:space="preserve">
<style type="text/css">
	.st0{fill:#E83E43;}
</style>
<g>
	<path d="M318,396.1c0.5-11.6,5-18.5,11.4-18.5c6.5,0,9.5,5.6,9.6,17.4L318,396.1z M353.9,400.3c0.6-14.8-6.2-27.4-23.6-27.4
		c-14.5,0-27.6,12.3-27.6,29c0,16.1,10.6,27.1,27.2,27.1c7.7,0,16.3-3.9,23.5-9.9l-1.3-2.7c-6.9,2.6-11.5,3.6-16.8,3.6
		c-11.7,0-17.2-7.1-17.3-19.7H353.9z M262.7,380.7l7.2-2.8v-3.3h-31.2v3.5l7.1,2.8l20.4,47.5h8.6l20-46.5l7.8-3.8v-3.5h-23v3.3
		l6.7,3.6l-5.6,16.6l-5.3,13.7h-0.7L262.7,380.7z M215.7,385.1v36.1l-7.7,2.6v3.4h30.1v-3.4l-7.2-2.6v-47.5l-2-1.2l-20.6,4.6v3
		L215.7,385.1z M213.5,352.8c0,5.3,4.1,9.3,9.4,9.3c5.8,0,10-4.8,10-10c0-5.3-3.9-9.4-9.5-9.4C217.6,342.7,213.5,347.6,213.5,352.8
		 M202.6,423.4l-0.1-3.6c-2.4,0.2-4.9,0.3-6.7,0.3c-3.8,0-6-0.3-8.1-1.7c-2.3-1.6-3-4.2-3-9.1v-27.2h17.7v-7.8h-17.7v-16.3h-4.3
		l-8.6,13.1l-11.3,7.8v3.1h8.9v32.6c0,9.4,4.6,13.8,13.8,13.8C190,428.7,198.3,426.1,202.6,423.4 M137.9,417.2c-3.1,2-6.3,3-8.6,3
		c-5.3,0-8.4-2.9-8.4-8.2c0-5.8,4.5-10.1,17-10.6V417.2z M152.3,389c0-11.4-5.9-16.1-18.6-16.1c-12.2,0-25,5.5-25,13.5
		c0,3.8,3.1,7.1,7.3,7.1c4.4,0,7-2.9,7-6.6c0-2.6-1.2-4.5-3.3-6.3c1.5-0.6,3.6-1,5.9-1c8.7,0,12.2,2.9,12.2,11.6v6.4
		c-20.9,1.5-31.1,8.2-31.1,18.1c0,8,5.8,12.5,14.2,12.5c6.2,0,11.1-2.9,16.4-7.8l1.4,0.2c0.9,5.5,3.9,7.7,9.3,7.7
		c4.5,0,9.6-1.4,13-2.7l-0.2-3c-6.7-0.1-8.5-2.6-8.5-6.5V389z M78.6,385.1v36.1l-7.7,2.6v3.4H101v-3.4l-7.2-2.6v-47.5l-2-1.2
		l-20.6,4.6v3L78.6,385.1z M76.4,352.8c0,5.3,4.1,9.3,9.4,9.3c5.8,0,10-4.8,10-10c0-5.3-3.9-9.4-9.5-9.4
		C80.5,342.7,76.4,347.6,76.4,352.8 M65.5,423.4l-0.1-3.6c-2.4,0.2-4.9,0.3-6.7,0.3c-3.8,0-6-0.3-8.1-1.7c-2.3-1.6-3-4.2-3-9.1
		v-27.2h17.7v-7.8H47.5v-16.3h-4.3l-8.6,13.1l-11.3,7.8v3.1h8.9v32.6c0,9.4,4.6,13.8,13.8,13.8C52.9,428.7,61.2,426.1,65.5,423.4
		 M-0.4,385.1v36.1l-7.7,2.6v3.4H22v-3.4l-7.2-2.6v-47.5l-2-1.2l-20.6,4.6v3L-0.4,385.1z M-2.6,352.8c0,5.3,4.1,9.3,9.4,9.3
		c5.8,0,10-4.8,10-10c0-5.3-3.9-9.4-9.5-9.4C1.6,342.7-2.6,347.6-2.6,352.8 M-20.9,388.8c0-9.9-5.3-15.9-14.9-15.9
		c-6.4,0-12.4,3.1-19.5,9.6l-1.4-0.2l0.8-8.4l-2.2-1.4l-19.9,4.6v3l7.3,4.9v36.1l-7.4,2.6v3.4h28.8v-3.4l-6.2-2.6v-35.1
		c3.9-2.1,6.5-3.3,10.5-3.3c6.4,0,8.8,4.2,8.8,11v27.3l-6.3,2.6v3.4h28.8v-3.4l-7.3-2.6V388.8z M-97,420.8v-61.2l11-2.6v-3.8h-39.6
		v3.8l11.1,2.6v61.2l-11.1,2.6v3.8h39.6v-3.8L-97,420.8z"/>
</g>
<g>
	<path d="M460.4,328.7c0,5.6-7.5,10.3-17.2,10.3c-12,0-17-4.2-17-10.2c0-3.1,1-5.7,2.6-7.7l18.7,0.2
		C456.5,321.5,460.4,323.5,460.4,328.7 M449.8,282.4c0,9.2-3.4,13.9-8.6,13.9c-5.9,0-9.5-2.9-9.5-13.5c0-10.1,3.7-13.5,8.9-13.5
		C446.6,269.4,449.8,273.8,449.8,282.4 M463.8,283.2c0-3.7-1-6.3-2.4-8.7l0.2-0.9l9.6,1.9h2.3v-10.1h-6.6l-8.9,5
		c-4.1-2.9-8.9-5-16.7-5c-13.2,0-23.5,6.7-23.5,17.5c0,6.6,4.3,12,10.5,15v0.7c-6.9,5.3-10.1,9.5-10.1,13.4c0,3.3,2.1,6.2,6.7,7.7
		l0.1,1.2c-7.7,2.9-11.3,6.9-11.3,11.1c0,6.7,8,11.8,25.4,11.8c19,0,31.5-9.6,31.5-21c0-8.7-6.3-13.4-18.4-13.6l-14.3-0.2
		c-5.6-0.1-7.7-1.5-7.7-4.4c0-1.5,1-3.6,2.2-5.1c2.1,0.7,4.5,1,8.5,1C455.1,300.4,463.8,293.1,463.8,283.2 M411.4,274.4
		c0-5.6-3.9-9.2-9.4-9.2c-6.9,0-11.6,4.8-16.4,12.7l-1.4-0.3l1.3-11.2l-2.2-1.4l-19.9,4.6v3l7.3,4.9v36.1l-7.4,2.6v3.4h30.9v-3.4
		l-8.2-2.6V283c2.6-3.4,5.5-5.8,9.2-6.6c0.6,3.9,3.4,7.3,7.9,7.3C407.8,283.7,411.4,279.8,411.4,274.4 M322.1,288.6
		c0.5-11.6,5-18.5,11.4-18.5c6.5,0,9.5,5.6,9.6,17.4L322.1,288.6z M358,292.8c0.6-14.7-6.2-27.4-23.6-27.4
		c-14.5,0-27.6,12.3-27.6,29c0,16.1,10.6,27.1,27.2,27.1c7.7,0,16.3-3.9,23.5-9.9l-1.3-2.7c-6.9,2.6-11.5,3.6-16.8,3.6
		c-11.7,0-17.2-7.1-17.3-19.7H358z M283.3,295.4c0,14.7-5.5,20.7-11.6,20.7c-4.5,0-7.8-1.9-10.7-5.6v-33.7c2.4-0.9,5.1-1.7,8-1.7
		C278,275.1,283.3,281.6,283.3,295.4 M299.3,291.8c0-16.4-9.9-26.5-20.8-26.5c-6.6,0-11.4,2.8-16.1,7.1l-1.4-0.2v-37.4l-2.2-1.3
		l-21.1,5.5v3l8.1,4.9v70.9c7,2.2,16.1,3.7,22.9,3.7C287.7,321.5,299.3,307.4,299.3,291.8 M237.4,274.4c0-5.6-3.9-9.2-9.4-9.2
		c-6.9,0-11.6,4.8-16.4,12.7l-1.4-0.3l1.3-11.2l-2.2-1.4l-19.9,4.6v3l7.3,4.9v36.1l-7.4,2.6v3.4h30.9v-3.4l-8.2-2.6V283
		c2.6-3.4,5.5-5.8,9.2-6.6c0.6,3.9,3.4,7.3,7.9,7.3C233.8,283.7,237.4,279.8,237.4,274.4 M148.2,288.6c0.5-11.6,5-18.5,11.4-18.5
		c6.5,0,9.5,5.6,9.6,17.4L148.2,288.6z M184.1,292.8c0.6-14.7-6.2-27.4-23.6-27.4c-14.5,0-27.6,12.3-27.6,29
		c0,16.1,10.6,27.1,27.2,27.1c7.7,0,16.3-3.9,23.5-9.9l-1.3-2.7c-6.9,2.6-11.5,3.6-16.8,3.6c-11.7,0-17.2-7.1-17.3-19.7H184.1z
		 M105.2,287.7l16-14.3l7.2-2.8v-3.5h-24.6v2.9l6.4,3.9L96,289.9h-4.4v-55l-2.2-1.3l-21,5.5v3l8,4.9v66.8l-7.4,2.6v3.4h28.5v-3.4
		l-5.8-2.6V296h4.1l13.5,18.3l-4.3,2.2v3h26v-3.4l-5.6-2.4L105.2,287.7z M63.5,277.8c0-6.9-7.2-12.4-18.7-12.4
		c-17.3,0-30,13-30,29.3c0,16,12,26.8,26.9,26.8c8,0,15.3-3,21.8-9.6l-1.2-2.8c-5.5,2.1-8.7,3.1-13.5,3.1
		c-10.6,0-18.5-6.7-18.5-19.6c0-14.1,7.5-21.5,16.1-21.8c0.8,0,1.4,0.1,2.1,0.2c-0.8,1.9-1.3,3.9-1.3,6.2c0,5.2,3,9.1,8.2,9.1
		C60.2,286.1,63.5,282.5,63.5,277.8 M2.9,309.7v-43.3L0.7,265l-20.3,4.6v2.8l7.3,4.8v30.9c-3.9,2.1-6.5,3.1-10.5,3.1
		c-6.3,0-8.8-3.9-8.8-11.2v-33.7l-2.1-1.4l-20.3,4.6v2.8l7.2,4.8v28.1c0,9.4,5.1,16,14.9,16c6.7,0,12.4-3.1,19.5-9.6l1.4,0.2
		l-0.8,8.4l2.2,1.3l20-4.6V314L2.9,309.7z M-59,293.1l-2.7-0.5l-8.6,12.5c-3.8,5.6-6.7,8-12.8,8l-22.1,0.2l46.1-64.9l-0.5-2.9h-60.7
		l-2.2,23.7l2.9,0.7l7.4-9.3c5-6.5,7.9-8.6,14.3-8.6l17.8-0.2l-46.5,64.8l0.5,2.9h64.7L-59,293.1z"/>
	<path d="M138.4,173.7c0-9.9-5.3-15.9-14.9-15.9c-6.4,0-12.4,3.1-19.5,9.6l-1.4-0.2l0.8-8.4l-2.2-1.4l-19.9,4.6v3l7.3,4.9v36.1
		l-7.4,2.6v3.4H110v-3.4l-6.2-2.6V171c3.9-2.1,6.5-3.3,10.5-3.3c6.4,0,8.8,4.2,8.8,11v27.3l-6.3,2.6v3.4h28.8v-3.4l-7.3-2.6V173.7z
		 M53.1,202.1c-3.1,2-6.3,3-8.6,3c-5.3,0-8.4-2.9-8.4-8.2c0-5.8,4.5-10.1,17-10.6V202.1z M67.5,174c0-11.4-5.9-16.1-18.6-16.1
		c-12.2,0-25,5.5-25,13.5c0,3.8,3.1,7.1,7.3,7.1c4.4,0,7-2.9,7-6.6c0-2.6-1.2-4.5-3.3-6.3c1.5-0.6,3.6-1,5.9-1
		c8.7,0,12.2,2.9,12.2,11.6v6.4c-20.9,1.5-31.1,8.2-31.1,18.1c0,8,5.8,12.5,14.2,12.5c6.2,0,11.1-2.9,16.4-7.8l1.4,0.2
		c0.9,5.5,3.9,7.7,9.3,7.7c4.5,0,9.6-1.4,13-2.7l-0.2-3c-6.7-0.1-8.5-2.6-8.5-6.5V174z M-6,178.8v27.3l-6.3,2.6v3.4h28.9v-3.4
		l-7.4-2.6v-32.4c0-9.5-5.1-15.9-14.9-15.9c-7.2,0-13.5,3.8-18.8,8.6l-1.3-0.2v-38.9L-28,126l-21,5.5v3l8,4.9v66.8l-7.4,2.6v3.4
		h28.9v-3.4l-6.3-2.6V171c4.1-2.2,6.6-3.3,10.8-3.3C-8.5,167.8-6,172.1-6,178.8 M-56,189.2l-3.1-0.5l-13.7,17.5
		c-2.8,0.9-4.6,1.3-7.7,1.3c-14.4,0-25.2-11.4-25.2-33.4c0-21.3,8.7-32.1,20.3-32.1c9.4,0,16,6.3,23.7,22.6l4.3-0.2l-1.4-28.5h-3.4
		l-3.9,3.9c-4.9-2.1-11.7-3.6-18.1-3.6c-23.6,0-40.7,17.3-40.7,39.5c0,24.3,17.1,38,40.9,38c10.6,0,18.1-1.9,25.7-5.2L-56,189.2z"/>
	<path class="st0" d="M407.9,389.2c-2.7,1.8-5.8,3-10.1,3.1c-5.2,0.1-9.1-3.3-9.5-8.4c-0.2-2.7,0.7-5.3,2.5-7.3c1.8-2,4.3-3.1,7-3.1
		c1.4,0,2.8,0.3,4.1,0.8c0,0-0.3,2.8-0.4,4.1l4.3,0l0.8-6.4l-1.2-0.8c-2.2-1.4-4.8-2.1-7.5-2.1c-3.9,0-7.6,1.7-10.2,4.5
		c-2.7,2.9-4,6.6-3.7,10.5c0.2,3.5,1.7,6.6,4.2,8.9c2.5,2.3,5.8,3.5,9.4,3.5l0.3,0c2.2-0.1,4.7-0.5,7.4-1.5l3.1-6L407.9,389.2"/>
	<path class="st0" d="M422.4,404.5l-0.5,5.9l0,0.1c-0.2,2.2-1.4,4.1-3.2,5c-1.4,0.7-3,0.7-4.3,0c-1.4-0.8-2.1-2-2.4-3.5
		c-0.4-2.4,0.9-4.8,2.8-6.1l28.7-18.6c0.2,1.6,0.3,3.2,0.3,4.8c0,19.3-15.7,35-35,35s-35-15.7-35-35c0-19.3,15.7-35,35-35
		c14.4,0,26.8,8.8,32.2,21.3l3.5-2.3c-6.1-13.6-19.8-23.1-35.7-23.1c-21.5,0-39.1,17.5-39.1,39.1c0,21.5,17.5,39.1,39.1,39.1
		c21.6,0,39.1-17.5,39.1-39.1c0-2.5-0.2-4.9-0.7-7.3c-0.3-1.5-0.9-3.6-1-3.9L438,386l-10.8,6.8c-0.4-1.4-1.2-2.9-3.1-3.7
		c-2.2-1-5.7-0.2-8.3,1.2c0,0,7.1-13.7,8.3-16L424,374l-0.4,0v0h-12.8l-0.5,4.4l2,0h5.2l-10.2,19.4l0.6,0.6l5.4-2.9
		c2.6-1.3,7-4.1,9.1-2.5l0.7,1.5l-0.3,0.6l-10.8,7.3c-3.5,2.5-4.9,6.2-4.6,9.8c0.3,3,2.1,5.5,4.9,7c1.4,0.8,3,1.2,4.5,1.1
		c1.4,0,2.7-0.4,4-1.1c3.1-1.6,5.1-4.8,5.5-8.5l0.9-9.9L422.4,404.5z"/>
</g>
</svg>
