<svg width="33" height="33" viewBox="0 0 33 33" fill="none" xmlns="http://www.w3.org/2000/svg">
<g clip-path="url(#clip0_1457_4050)">
<path d="M11.1504 23.0312C11.2077 22.9453 11.1862 22.8522 11.0859 22.752C10.957 22.6517 10.8568 22.6374 10.7852 22.709C10.7279 22.7949 10.7493 22.888 10.8496 22.9883C10.9785 23.0885 11.0788 23.1029 11.1504 23.0312ZM10.5488 22.1504C10.4772 22.0501 10.3913 22.0215 10.291 22.0645C10.2051 22.1217 10.2051 22.2077 10.291 22.3223C10.3913 22.4368 10.4772 22.4727 10.5488 22.4297C10.6348 22.3724 10.6348 22.2793 10.5488 22.1504ZM9.66797 21.291C9.69661 21.2337 9.66081 21.1764 9.56055 21.1191C9.46029 21.0905 9.403 21.1048 9.38867 21.1621C9.3457 21.2337 9.37435 21.291 9.47461 21.334C9.58919 21.3626 9.65365 21.3483 9.66797 21.291ZM10.1191 21.7852C10.1478 21.7708 10.1585 21.7386 10.1514 21.6885C10.1442 21.6383 10.1191 21.599 10.0762 21.5703C9.99023 21.4701 9.91862 21.4486 9.86133 21.5059C9.80404 21.5632 9.8112 21.6419 9.88281 21.7422C9.96875 21.8281 10.0475 21.8424 10.1191 21.7852ZM11.9668 23.3965C11.9954 23.2962 11.931 23.2174 11.7734 23.1602C11.6445 23.1172 11.5514 23.1458 11.4941 23.2461C11.4655 23.3464 11.5299 23.4251 11.6875 23.4824C11.8164 23.5254 11.9095 23.4967 11.9668 23.3965ZM12.8691 23.4609C12.8691 23.3464 12.7832 23.2891 12.6113 23.2891C12.4681 23.2891 12.3965 23.3464 12.3965 23.4609C12.3965 23.5755 12.4753 23.6328 12.6328 23.6328C12.7904 23.6328 12.8691 23.5755 12.8691 23.4609ZM13.707 23.3105C13.6784 23.2103 13.5853 23.1745 13.4277 23.2031C13.2702 23.2318 13.2057 23.2962 13.2344 23.3965C13.263 23.5111 13.349 23.554 13.4922 23.5254C13.6354 23.4967 13.707 23.4251 13.707 23.3105ZM27.5 16.5C27.5 13.4635 26.4258 10.8711 24.2773 8.72266C22.1289 6.57422 19.5365 5.5 16.5 5.5C13.4635 5.5 10.8711 6.57422 8.72266 8.72266C6.57422 10.8711 5.5 13.4635 5.5 16.5C5.5 18.8919 6.20182 21.0439 7.60547 22.9561C9.00911 24.8682 10.8138 26.1966 13.0195 26.9414C13.2773 26.9844 13.4671 26.9486 13.5889 26.834C13.7106 26.7194 13.7715 26.5762 13.7715 26.4043C13.7715 25.6595 13.7643 24.9792 13.75 24.3633C13.6641 24.3776 13.5531 24.3955 13.417 24.417C13.2809 24.4385 13.0267 24.4528 12.6543 24.46C12.2819 24.4671 11.9382 24.4385 11.623 24.374C11.3079 24.3096 10.9964 24.1663 10.6885 23.9443C10.3805 23.7223 10.1693 23.4251 10.0547 23.0527C9.72526 22.2077 9.31706 21.6777 8.83008 21.4629C8.80143 21.4486 8.76921 21.4235 8.7334 21.3877L8.56152 21.2158L8.41113 21.0117L8.49707 20.8506L8.91602 20.7754C9.00195 20.7754 9.10938 20.7897 9.23828 20.8184C9.36719 20.847 9.58203 20.958 9.88281 21.1514C10.1836 21.3447 10.4199 21.599 10.5918 21.9141C10.821 22.3151 11.0895 22.6159 11.3975 22.8164C11.7054 23.0169 12.0169 23.1172 12.332 23.1172C12.6471 23.1172 12.9193 23.0921 13.1484 23.042C13.3776 22.9919 13.5924 22.9238 13.793 22.8379C13.8932 22.1647 14.1296 21.6706 14.502 21.3555C13.8001 21.2695 13.1842 21.137 12.6543 20.958C12.1243 20.779 11.6016 20.4997 11.0859 20.1201C10.5703 19.7406 10.1729 19.1963 9.89355 18.4873C9.61426 17.7783 9.47461 16.9225 9.47461 15.9199C9.47461 14.7884 9.85417 13.8073 10.6133 12.9766C10.2695 12.0885 10.3053 11.1146 10.7207 10.0547C10.9928 9.96875 11.3831 10.0225 11.8916 10.2158C12.4001 10.4092 12.8333 10.6204 13.1914 10.8496L13.75 11.1934C14.5807 10.9499 15.4974 10.8281 16.5 10.8281C17.5026 10.8281 18.4193 10.9499 19.25 11.1934C19.4076 11.0931 19.6117 10.9642 19.8623 10.8066C20.113 10.6491 20.5104 10.4629 21.0547 10.248C21.599 10.0332 22.0072 9.96875 22.2793 10.0547C22.6947 11.1146 22.7305 12.0885 22.3867 12.9766C23.1458 13.8073 23.5254 14.7884 23.5254 15.9199C23.5254 16.7363 23.4251 17.4561 23.2246 18.0791C23.0241 18.7021 22.7699 19.2035 22.4619 19.583C22.154 19.9626 21.7708 20.2812 21.3125 20.5391C20.8542 20.7969 20.4066 20.9831 19.9697 21.0977C19.5329 21.2122 19.0423 21.2982 18.498 21.3555C18.9993 21.7995 19.25 22.4798 19.25 23.3965C19.25 23.9694 19.2464 24.6068 19.2393 25.3086C19.2321 26.0104 19.2285 26.3757 19.2285 26.4043C19.2285 26.5762 19.2894 26.7194 19.4111 26.834C19.5329 26.9486 19.7227 26.9844 19.9805 26.9414C22.1862 26.1966 23.9909 24.8682 25.3945 22.9561C26.7982 21.0439 27.5 18.8919 27.5 16.5ZM33 6.1875V26.8125C33 28.5169 32.3949 29.9743 31.1846 31.1846C29.9743 32.3949 28.5169 33 26.8125 33H6.1875C4.48307 33 3.02572 32.3949 1.81543 31.1846C0.605143 29.9743 0 28.5169 0 26.8125V6.1875C0 4.48307 0.605143 3.02572 1.81543 1.81543C3.02572 0.605143 4.48307 0 6.1875 0H26.8125C28.5169 0 29.9743 0.605143 31.1846 1.81543C32.3949 3.02572 33 4.48307 33 6.1875Z" fill="#F7FAFC"/>
</g>
<defs>
<clipPath id="clip0_1457_4050">
<rect width="33" height="33" fill="white"/>
</clipPath>
</defs>
</svg>
