<svg width="29" height="29" viewBox="0 0 29 29" fill="none" xmlns="http://www.w3.org/2000/svg">
<path d="M13.4688 0.0625H15.5312V5.21875H13.4688V0.0625ZM20.3657 7.17812L23.9813 3.56256L25.4395 5.02075L21.8239 8.63631L20.3657 7.17812ZM23.7812 13.4688H28.9375V15.5312H23.7812V13.4688ZM20.3657 21.8219L21.8239 20.3647L25.4395 23.9803L23.9813 25.4385L20.3657 21.8219ZM13.4688 23.7812H15.5312V28.9375H13.4688V23.7812ZM3.56256 23.9792L7.17812 20.3637L8.63631 21.8219L5.02178 25.4374L3.56256 23.9792ZM0.0625 13.4688H5.21875V15.5312H0.0625V13.4688ZM3.56359 5.02075L5.02178 3.56256L8.63734 7.17812L7.17812 8.63631L3.56359 5.02075ZM14.5 8.3125C13.2762 8.3125 12.0799 8.67539 11.0624 9.35528C10.0449 10.0352 9.25181 11.0015 8.7835 12.1321C8.31518 13.2628 8.19265 14.5069 8.43139 15.7071C8.67014 16.9074 9.25944 18.0099 10.1248 18.8752C10.9901 19.7406 12.0926 20.3299 13.2929 20.5686C14.4931 20.8074 15.7372 20.6848 16.8679 20.2165C17.9985 19.7482 18.9648 18.9551 19.6447 17.9376C20.3246 16.9201 20.6875 15.7238 20.6875 14.5C20.6875 12.859 20.0356 11.2852 18.8752 10.1248C17.7148 8.9644 16.141 8.3125 14.5 8.3125Z" fill="white"/>
</svg>
