<svg width="33" height="33" viewBox="0 0 33 33" fill="none" xmlns="http://www.w3.org/2000/svg">
<g clip-path="url(#clip0_1457_4034)">
<path d="M6.47175 0.0078125C2.91709 0.0078125 0.0078125 2.91703 0.0078125 6.47175V26.5305C0.0078125 30.0852 2.91703 32.9934 6.47175 32.9934H26.5305C30.0852 32.9934 32.9934 30.0852 32.9934 26.5305V6.47175C32.9934 2.91709 30.0852 0.0078125 26.5305 0.0078125H6.47175ZM8.09753 5.4511C9.80192 5.4511 10.8517 6.56999 10.8842 8.04077C10.8842 9.47908 9.80185 10.6294 8.06456 10.6294H8.03259C6.36064 10.6294 5.27999 9.47914 5.27999 8.04077C5.27999 6.57003 6.39335 5.4511 8.0975 5.4511H8.09753ZM22.7852 12.3253C26.063 12.3253 28.5202 14.4678 28.5202 19.0717V27.6665H23.5388V19.648C23.5388 17.633 22.8178 16.2583 21.0151 16.2583C19.6389 16.2583 18.8185 17.1848 18.4584 18.0799C18.3268 18.4002 18.2945 18.8474 18.2945 19.2954V27.6665H13.313C13.313 27.6665 13.3784 14.0833 13.313 12.6768H18.2955V14.7995C18.9575 13.7782 20.1416 12.3253 22.7852 12.3253V12.3253ZM5.57382 12.6779H10.5553V27.6666H5.57382V12.6779Z" fill="#F7FAFC"/>
</g>
<defs>
<clipPath id="clip0_1457_4034">
<rect width="33" height="33" fill="white"/>
</clipPath>
</defs>
</svg>
