<svg width="33" height="33" viewBox="0 0 33 33" fill="none" xmlns="http://www.w3.org/2000/svg">
<path d="M27.5 10.3555C26.6979 10.7135 25.8314 10.957 24.9004 11.0859C25.8743 10.513 26.5404 9.67513 26.8984 8.57227C25.9674 9.11654 25.0078 9.48177 24.0195 9.66797C23.1458 8.72266 22.0501 8.25 20.7324 8.25C19.4863 8.25 18.4229 8.69043 17.542 9.57129C16.6611 10.4521 16.2207 11.5156 16.2207 12.7617C16.2207 13.1771 16.2565 13.5208 16.3281 13.793C14.4805 13.6927 12.7474 13.2272 11.1289 12.3965C9.51042 11.5658 8.13542 10.4557 7.00391 9.06641C6.58854 9.78255 6.38086 10.5417 6.38086 11.3438C6.38086 12.9766 7.03255 14.2298 8.33594 15.1035C7.66276 15.0892 6.94661 14.903 6.1875 14.5449V14.5879C6.1875 15.6621 6.54557 16.6182 7.26172 17.4561C7.97786 18.2939 8.85872 18.8132 9.9043 19.0137C9.48893 19.1283 9.1237 19.1855 8.80859 19.1855C8.6224 19.1855 8.3431 19.1569 7.9707 19.0996C8.27148 20.002 8.80501 20.7467 9.57129 21.334C10.3376 21.9212 11.2077 22.222 12.1816 22.2363C10.5202 23.5254 8.65104 24.1699 6.57422 24.1699C6.20182 24.1699 5.84375 24.1484 5.5 24.1055C7.61979 25.4518 9.92578 26.125 12.418 26.125C14.0221 26.125 15.526 25.8708 16.9297 25.3623C18.3333 24.8538 19.5365 24.1735 20.5391 23.3213C21.5417 22.4691 22.4046 21.488 23.1279 20.3779C23.8512 19.2679 24.3883 18.1077 24.7393 16.8975C25.0902 15.6872 25.2656 14.4805 25.2656 13.2773C25.2656 13.0195 25.2585 12.8262 25.2441 12.6973C26.1465 12.0527 26.8984 11.2721 27.5 10.3555ZM33 6.1875V26.8125C33 28.5169 32.3949 29.9743 31.1846 31.1846C29.9743 32.3949 28.5169 33 26.8125 33H6.1875C4.48307 33 3.02572 32.3949 1.81543 31.1846C0.605143 29.9743 0 28.5169 0 26.8125V6.1875C0 4.48307 0.605143 3.02572 1.81543 1.81543C3.02572 0.605143 4.48307 0 6.1875 0H26.8125C28.5169 0 29.9743 0.605143 31.1846 1.81543C32.3949 3.02572 33 4.48307 33 6.1875Z" fill="#1E2445"/>
</svg>
